<?xml version="1.0" encoding="UTF-8"?>
<svg xmlns="http://www.w3.org/2000/svg" width="100" height="98" viewBox="0 0 100 98" fill="none">
  <path d="M4.16663 4.60461H95.8335V93.7716H4.16663V4.60461Z" fill="url(#paint0_radial_25_457)"></path>
  <path d="M4.16662 4.6046H95.8336V93.7715H4.16662V4.6046ZM0 97.9383H100V0.437988H0V97.9383ZM63.2502 40.938C62.6251 40.6463 61.7917 40.5214 60.7917 40.5214C55.4167 40.5214 51.6667 44.6465 51.6667 51.5214C51.6667 59.3547 55.5 62.5213 60.2919 62.5213C61.3334 62.5213 62.4168 62.3963 63.2502 62.0213V40.938ZM61.0416 34.1464C61.9167 34.1464 62.4168 34.1464 63.25 34.2297V23.1463C63.25 22.8547 63.4583 22.7297 63.6665 22.7297H70.4166C70.7499 22.7297 70.8332 22.8547 70.8332 23.063V62.0215C70.8332 63.188 70.8332 64.6465 71.0415 66.2298C71.0415 66.5214 70.9582 66.5631 70.6665 66.7299C67.0832 68.4382 63.2917 69.1882 59.75 69.1882C50.5417 69.1882 43.9582 63.48 43.9582 51.8549C43.9167 41.8963 50.5 34.1464 61.0416 34.1464ZM36.5835 68.0215C36.5835 68.438 36.5002 68.5631 36.0418 68.5631H29.6251C29.2085 68.5631 29.0833 68.3548 29.0833 68.0215V23.2713C29.0833 22.8547 29.2917 22.7295 29.6251 22.7295H36.0834C36.4167 22.7295 36.5835 22.8545 36.5835 23.2296V68.0215Z" fill="#FF408C"></path>
  <defs>
    <radialGradient id="paint0_radial_25_457" cx="0" cy="0" r="1" gradientUnits="userSpaceOnUse" gradientTransform="translate(34.3572 24.587) scale(69.6668 67.4502)">
      <stop stop-color="#4B2B36" stop-opacity="0.98"></stop>
      <stop offset="1" stop-color="#250012"></stop>
    </radialGradient>
  </defs>
</svg>
