<?xml version="1.0" encoding="UTF-8"?>
<svg xmlns="http://www.w3.org/2000/svg" width="100" height="101" viewBox="0 0 100 101" fill="none">
  <g clip-path="url(#clip0_307_350)">
    <path d="M50 100.218C77.6142 100.218 100 77.8323 100 50.218C100 22.6038 77.6142 0.218018 50 0.218018C22.3858 0.218018 0 22.6038 0 50.218C0 77.8323 22.3858 100.218 50 100.218Z" fill="#7D2AE7"></path>
    <path d="M50 100.218C77.6142 100.218 100 77.8323 100 50.218C100 22.6038 77.6142 0.218018 50 0.218018C22.3858 0.218018 0 22.6038 0 50.218C0 77.8323 22.3858 100.218 50 100.218Z" fill="url(#paint0_radial_307_350)"></path>
    <path d="M50 100.218C77.6142 100.218 100 77.8323 100 50.218C100 22.6038 77.6142 0.218018 50 0.218018C22.3858 0.218018 0 22.6038 0 50.218C0 77.8323 22.3858 100.218 50 100.218Z" fill="url(#paint1_radial_307_350)"></path>
    <path d="M50 100.218C77.6142 100.218 100 77.8323 100 50.218C100 22.6038 77.6142 0.218018 50 0.218018C22.3858 0.218018 0 22.6038 0 50.218C0 77.8323 22.3858 100.218 50 100.218Z" fill="url(#paint2_radial_307_350)"></path>
    <path d="M50 100.218C77.6142 100.218 100 77.8323 100 50.218C100 22.6038 77.6142 0.218018 50 0.218018C22.3858 0.218018 0 22.6038 0 50.218C0 77.8323 22.3858 100.218 50 100.218Z" fill="url(#paint3_radial_307_350)"></path>
    <path d="M71.5863 60.4749C71.1736 60.4749 70.8105 60.8233 70.4326 61.5843C66.1652 70.2375 58.7947 76.3601 50.2655 76.3601C40.4034 76.3601 34.2961 67.4575 34.2961 55.1585C34.2961 34.3252 45.9039 22.2798 56.0994 22.2798C60.8636 22.2798 63.7731 25.2737 63.7731 30.0382C63.7731 35.6929 60.5605 38.6868 60.5605 40.6811C60.5605 41.5763 61.1173 42.1184 62.2215 42.1184C66.6578 42.1184 71.8647 37.0208 71.8647 29.8193C71.8647 22.8368 65.7873 17.7043 55.5921 17.7043C38.7423 17.7043 23.7676 33.3255 23.7676 54.9396C23.7676 71.6701 33.3214 82.7259 48.0624 82.7259C63.7084 82.7259 72.7552 67.1591 72.7552 62.1064C72.7552 60.9875 72.1831 60.4749 71.5863 60.4749Z" fill="white"></path>
  </g>
  <defs>
    <radialGradient id="paint0_radial_307_350" cx="0" cy="0" r="1" gradientUnits="userSpaceOnUse" gradientTransform="translate(19.3162 88.8502) rotate(-49.416) scale(77.3416)">
      <stop stop-color="#6420FF"></stop>
      <stop offset="1" stop-color="#6420FF" stop-opacity="0"></stop>
    </radialGradient>
    <radialGradient id="paint1_radial_307_350" cx="0" cy="0" r="1" gradientUnits="userSpaceOnUse" gradientTransform="translate(26.4735 11.5862) rotate(54.703) scale(87.2168)">
      <stop stop-color="#00C4CC"></stop>
      <stop offset="1" stop-color="#00C4CC" stop-opacity="0"></stop>
    </radialGradient>
    <radialGradient id="paint2_radial_307_350" cx="0" cy="0" r="1" gradientUnits="userSpaceOnUse" gradientTransform="translate(19.3158 88.8496) rotate(-45.1954) scale(76.4053 35.1398)">
      <stop stop-color="#6420FF"></stop>
      <stop offset="1" stop-color="#6420FF" stop-opacity="0"></stop>
    </radialGradient>
    <radialGradient id="paint3_radial_307_350" cx="0" cy="0" r="1" gradientUnits="userSpaceOnUse" gradientTransform="translate(40.8947 13.6917) rotate(66.5198) scale(78.7295 131.889)">
      <stop stop-color="#00C4CC" stop-opacity="0.725916"></stop>
      <stop offset="0.0001" stop-color="#00C4CC"></stop>
      <stop offset="1" stop-color="#00C4CC" stop-opacity="0"></stop>
    </radialGradient>
    <clipPath id="clip0_307_350">
      <rect width="100" height="100" fill="white" transform="translate(0 0.218018)"></rect>
    </clipPath>
  </defs>
</svg>
