<?xml version="1.0" encoding="UTF-8"?>
<svg xmlns="http://www.w3.org/2000/svg" width="100" height="101" viewBox="0 0 100 101" fill="none">
  <path fill-rule="evenodd" clip-rule="evenodd" d="M58.8812 0.414124C58.1581 0.414124 57.4866 0.56908 56.8668 0.775676C58.1839 1.65373 58.907 2.81587 59.2685 4.13295C59.2944 4.31372 59.346 4.44285 59.3719 4.62362C59.3978 4.77857 59.4235 4.93353 59.4235 5.08848C59.5268 7.36109 58.8295 7.64516 58.3388 8.98807C57.5899 10.7184 57.7965 12.5778 58.7004 14.0756C58.7779 14.2564 58.8812 14.463 59.0103 14.6438C58.0289 8.11002 63.478 7.12866 64.4852 5.08848C64.5627 3.30654 63.0907 2.11858 61.9285 1.29218C60.818 0.620726 59.8109 0.414124 58.8812 0.414124ZM67.0936 1.88616C66.9902 2.48014 67.0677 2.32518 67.0419 2.63509C67.0161 2.84169 67.0161 3.09994 66.9903 3.30654C66.9387 3.51314 66.887 3.71974 66.8095 3.92635C66.7579 4.13295 66.6804 4.33955 66.603 4.54615C66.4996 4.75276 66.4222 4.93352 66.3189 5.14013C66.2414 5.24347 66.1898 5.34672 66.1123 5.45003C66.0607 5.52751 66.0089 5.60498 65.9573 5.68246C65.8282 5.86324 65.6991 6.04401 65.5699 6.19896C65.415 6.35391 65.2859 6.53468 65.1051 6.66382V6.68967C64.9501 6.8188 64.7952 6.97375 64.6144 7.10287C64.0721 7.51607 63.4523 7.82598 62.8841 8.21336C62.7034 8.34248 62.5226 8.44579 62.3676 8.60074C62.1869 8.72986 62.0319 8.85898 61.877 9.01394C61.6962 9.16889 61.567 9.32384 61.4121 9.50462C61.283 9.65957 61.128 9.84034 61.0247 10.0211C60.8956 10.2019 60.7665 10.3827 60.6632 10.5634C60.5598 10.77 60.4824 10.9508 60.3791 11.1574C60.3016 11.364 60.2241 11.5448 60.1725 11.7514C60.095 11.9838 60.0434 12.1904 59.9917 12.397C59.9659 12.5004 59.9659 12.6295 59.9401 12.7328C59.9142 12.8361 59.9142 12.9394 59.8885 13.0427C59.8885 13.2493 59.8626 13.4817 59.8626 13.6883C59.8626 13.8432 59.8626 13.9982 59.8885 14.1531C59.8885 14.3597 59.9144 14.5663 59.966 14.7988C59.9918 15.0054 60.0434 15.212 60.0951 15.4186C60.1726 15.6252 60.2242 15.8318 60.3017 16.0384C60.3533 16.1675 60.4308 16.2966 60.4825 16.3999L54.5427 14.1015C53.5355 13.8174 52.5542 13.5592 51.547 13.3267C51.0046 13.1976 50.4623 13.0685 49.92 12.9394C48.3705 12.6295 46.7952 12.397 45.2198 12.2421C45.1682 12.2421 45.1423 12.2162 45.0907 12.2162C43.5412 12.0613 42.0175 11.9838 40.468 11.9838C39.3317 11.9838 38.1954 12.0354 37.0849 12.1129C35.5095 12.2163 33.9342 12.4228 32.3589 12.6811C31.9715 12.7327 31.5841 12.8102 31.1967 12.8877C30.3962 13.0426 29.6214 13.2234 28.8725 13.4042C28.4851 13.5075 28.0977 13.6108 27.7103 13.7141C27.323 13.869 26.9614 14.0498 26.5999 14.2048C26.3158 14.3339 26.0317 14.463 25.7476 14.5921C25.696 14.618 25.6443 14.618 25.6185 14.6438C25.3603 14.7729 25.1278 14.8762 24.8954 15.0053C24.8179 15.0312 24.7663 15.0569 24.7146 15.0828C24.4306 15.2119 24.1465 15.3669 23.9141 15.496C23.7333 15.5735 23.5525 15.6768 23.3976 15.7542C23.3201 15.8058 23.2168 15.8576 23.1651 15.8834C22.9327 16.0125 22.7003 16.1416 22.4937 16.2707C22.2612 16.3999 22.0546 16.529 21.8739 16.6581C21.6931 16.7872 21.5123 16.8905 21.3574 17.0197C21.3315 17.0455 21.3057 17.0455 21.2799 17.0713C21.1249 17.1746 20.9442 17.3037 20.7892 17.4328C20.7892 17.4328 20.7633 17.4587 20.7376 17.4844C20.6085 17.5878 20.4793 17.691 20.3502 17.7943C20.2986 17.8202 20.2469 17.8718 20.1953 17.8977C20.0661 18.001 19.937 18.1301 19.8079 18.2334C19.782 18.285 19.7304 18.3109 19.7046 18.3368C19.5496 18.4917 19.3947 18.6208 19.2397 18.7758C19.2138 18.7758 19.2138 18.8016 19.1881 18.8274C19.0331 18.9565 18.8782 19.1115 18.7232 19.2664C18.6974 19.2923 18.6974 19.318 18.6716 19.318C18.5425 19.4471 18.4134 19.5763 18.2842 19.7312C18.2326 19.7828 18.1551 19.8346 18.1035 19.8862C17.9744 20.0411 17.8194 20.1961 17.6644 20.351C17.6386 20.4026 17.587 20.4285 17.5611 20.4802C17.3545 20.6868 17.1737 20.8934 16.9671 21.1C16.9413 21.1258 16.9155 21.1516 16.8897 21.1774C16.4764 21.6165 16.0374 22.0555 15.5726 22.4429C15.1077 22.8561 14.617 23.2434 14.1264 23.5792C13.6099 23.9407 13.1192 24.2506 12.5768 24.5605C12.0603 24.8446 11.518 25.1029 10.9499 25.3353C10.4075 25.5677 9.83938 25.7743 9.27123 25.9551C8.18657 26.1875 7.07609 26.6265 6.12056 26.704C5.91396 26.704 5.68153 26.7556 5.47493 26.7815C5.2425 26.8331 5.0359 26.8848 4.82931 26.9364C4.62271 27.0139 4.4161 27.0914 4.2095 27.1689C4.0029 27.2463 3.7963 27.3496 3.5897 27.4529C3.40892 27.5821 3.20232 27.6854 3.02154 27.8145C2.84077 27.9436 2.65999 28.0986 2.50504 28.2535C2.32427 28.3827 2.14349 28.5634 1.98853 28.7184C1.83358 28.8992 1.67863 29.0541 1.54951 29.2349C1.42038 29.4415 1.26543 29.6223 1.16213 29.8289C1.033 30.0096 0.903882 30.2162 0.800576 30.4228C0.697234 30.6553 0.593977 30.8619 0.516501 31.0943C0.439025 31.3009 0.361549 31.5333 0.284073 31.7657C0.232463 31.9723 0.180732 32.1789 0.154951 32.3855C0.154951 32.4114 0.129086 32.4372 0.129086 32.463C0.0774755 32.6955 0.0774754 33.0054 0.0516095 33.1603C0.0257446 33.3411 0 33.496 0 33.6768C0 33.7802 8.03957e-08 33.9092 0.025865 34.0125C0.0517299 34.1933 0.0774744 34.3483 0.129207 34.5032C0.180817 34.6582 0.232549 34.8131 0.309976 34.9681V34.9939C0.387452 35.1489 0.490757 35.3038 0.594051 35.4588C0.697393 35.6137 0.800662 35.7687 0.929784 35.9236C1.05891 36.0528 1.21386 36.2077 1.36881 36.3368C1.52376 36.4918 1.67872 36.6209 1.85948 36.75C2.47929 37.2924 2.63424 37.4732 3.43482 37.8863C3.56394 37.9638 3.69308 38.0155 3.84803 38.093C3.8739 38.093 3.89964 38.1188 3.92551 38.1188C3.92551 38.1704 3.92551 38.1963 3.95138 38.248C3.97724 38.4546 4.02885 38.6611 4.0805 38.8677C4.13211 39.1002 4.20963 39.3068 4.28711 39.4876C4.36459 39.6425 4.41623 39.7975 4.49371 39.9524C4.51957 40.004 4.54532 40.0558 4.57119 40.0815C4.67453 40.2881 4.77778 40.4689 4.88108 40.6497C5.01021 40.8305 5.13933 41.0112 5.26846 41.192C5.39758 41.347 5.55253 41.5277 5.70748 41.6827C5.86244 41.8376 6.01739 41.9668 6.19817 42.1217C6.19817 42.1217 6.22404 42.1476 6.24978 42.1476C6.40473 42.2767 6.55968 42.4059 6.71464 42.5092C6.89541 42.6383 7.07619 42.7416 7.28279 42.8449C7.46357 42.9482 7.67017 43.0515 7.87676 43.129C8.03172 43.2064 8.21248 43.2581 8.39327 43.3097C8.41914 43.3356 8.44488 43.3356 8.49661 43.3614C8.59995 43.3873 8.72902 43.413 8.83233 43.4388C8.75485 44.8334 8.72899 46.1505 8.93567 46.6153C9.16809 47.1318 10.3044 45.5565 11.4407 43.7487C11.2858 45.5307 11.1825 47.6225 11.4407 48.2423C11.7248 48.8879 13.2743 46.8736 14.6172 44.6526C32.9272 40.4173 49.6361 53.0716 51.3922 70.9426C51.0565 68.1535 47.6217 66.604 46.0464 66.9914C45.2717 68.9024 43.9546 71.3558 41.8369 72.8795C42.0177 71.175 41.9403 69.4189 41.5787 67.7145C41.0105 70.0904 39.9 72.3114 38.3763 74.2224C35.923 74.4032 33.4696 73.2152 32.1783 71.4333C32.075 71.3558 32.0492 71.2009 31.9717 71.0976C31.8942 70.9168 31.8167 70.736 31.7651 70.5552C31.6876 70.3745 31.636 70.1937 31.6101 70.0129C31.5843 69.8321 31.5843 69.6514 31.5843 69.4448C31.5843 69.3156 31.5843 69.1865 31.5843 69.0574C31.6101 68.8766 31.6618 68.6958 31.7134 68.515C31.765 68.3343 31.8167 68.1535 31.8942 67.9727C31.9975 67.792 32.075 67.6112 32.2041 67.4304C32.6431 66.1908 32.6431 65.1836 31.8425 64.5896C31.6876 64.4863 31.5326 64.4088 31.3518 64.3314C31.2485 64.3055 31.1194 64.2539 31.0161 64.228C30.9387 64.2022 30.887 64.1764 30.8095 64.1506C30.6287 64.0989 30.448 64.0472 30.2672 64.0214C30.0864 63.9698 29.9056 63.944 29.7249 63.944C29.5441 63.9181 29.3375 63.8923 29.1567 63.8923C29.0276 63.8923 28.8985 63.9182 28.7693 63.9182C28.5627 63.9182 28.382 63.9441 28.2012 63.9957C28.0204 64.0216 27.8396 64.0473 27.6589 64.099C27.4781 64.1506 27.2973 64.2024 27.1165 64.2798C26.9358 64.3573 26.7808 64.4348 26.6 64.5122C26.4451 64.5897 26.2901 64.693 26.1093 64.7705C20.0921 68.6959 23.6818 77.8896 27.788 80.5496C26.2385 80.8337 24.6631 81.1695 24.2241 81.5052C24.1982 81.531 24.1725 81.5568 24.1725 81.5568C25.283 82.2282 26.4451 82.7964 27.6589 83.2871C29.3117 83.8294 31.0678 84.3201 31.8426 84.5267V84.5525C33.9861 84.9916 36.1554 85.1465 38.3505 85.0174C49.7911 84.2168 59.1656 75.5137 60.8701 64.0474C60.9217 64.2798 60.9734 64.4864 61.025 64.7188C61.1025 65.1837 61.2058 65.6743 61.2574 66.165V66.1909C61.309 66.4233 61.3349 66.6558 61.3608 66.8624V66.9657C61.3867 67.1981 61.4124 67.4306 61.4124 67.6372C61.4382 67.9212 61.464 68.2053 61.464 68.4894V68.9026C61.464 69.0317 61.4898 69.1867 61.4898 69.3158C61.4898 69.4708 61.464 69.6257 61.464 69.7807V70.1422C61.464 70.323 61.4381 70.4779 61.4381 70.6587C61.4381 70.762 61.4381 70.8653 61.4122 70.9944C61.4122 71.1752 61.3864 71.356 61.3864 71.5626C61.3605 71.6401 61.3605 71.7175 61.3605 71.795C61.3346 72.0016 61.3089 72.1824 61.283 72.389C61.283 72.4665 61.283 72.5439 61.2571 72.6214C61.2312 72.8797 61.1797 73.1121 61.1538 73.3704V73.3963V73.4221C61.1022 73.6545 61.0505 73.9128 60.9988 74.1452V74.2227C60.9472 74.4551 60.8955 74.6875 60.8439 74.92C60.8439 74.9459 60.8181 74.9974 60.8181 75.0233C60.7664 75.2557 60.7147 75.4882 60.6373 75.7206V75.7981C60.5598 76.0563 60.4823 76.2887 60.4307 76.5212C60.4048 76.547 60.4048 76.5728 60.4048 76.5728C60.3273 76.831 60.2499 77.0893 60.1724 77.3475C60.0691 77.6058 59.9916 77.8382 59.8883 78.0965C59.785 78.3547 59.7075 78.613 59.6042 78.8454C59.5009 79.1036 59.3976 79.3361 59.2943 79.5943H59.2684C59.1651 79.8267 59.0618 80.085 58.9327 80.3174C58.9068 80.3949 58.8811 80.4465 58.8552 80.4982C58.8294 80.5241 58.8294 80.5498 58.8036 80.5757C57.125 83.9588 54.6458 86.9286 51.5468 89.2529C51.3402 89.382 51.1335 89.537 50.927 89.6919C50.8753 89.7436 50.7978 89.7694 50.7462 89.8211C50.5654 89.9502 50.3846 90.0793 50.178 90.2085L50.2555 90.3634H50.2814C50.6429 90.3118 51.0045 90.2601 51.366 90.2085H51.3919C52.0633 90.1051 52.7348 89.976 53.4062 89.8469C53.587 89.821 53.7936 89.7694 53.9744 89.7178C54.1035 89.6919 54.2068 89.6662 54.3359 89.6403C54.5167 89.6144 54.6975 89.5628 54.8783 89.5369C55.0332 89.4853 55.1882 89.4595 55.3431 89.4078C57.9256 88.788 60.4307 87.9358 62.8324 86.9286C58.7262 92.5327 53.2255 97.0521 46.795 100.022C49.7649 99.8154 52.7348 99.3247 55.6014 98.4983C66.0089 95.4251 74.7636 88.4265 80.0061 79.0003C78.9473 84.9659 76.5714 90.6474 73.0592 95.6059C75.5642 93.953 77.8626 92.042 79.9545 89.8727C85.7393 83.8296 89.5356 76.1595 90.8269 67.9213C91.7049 72.0017 91.9632 76.2112 91.5758 80.369C110.222 54.3631 93.1253 27.4016 85.9717 20.2997C85.9459 20.2481 85.9201 20.2222 85.9201 20.1706C85.8942 20.1964 85.8942 20.1964 85.8942 20.2222C85.8942 20.1963 85.8942 20.1963 85.8684 20.1706C85.8684 20.4805 85.8425 20.7904 85.8168 21.1003C85.7393 21.6943 85.6618 22.2624 85.5585 22.8306C85.4294 23.3987 85.2744 23.9669 85.1195 24.535C84.9387 25.0774 84.7321 25.6455 84.4997 26.1878C84.2673 26.7043 84.009 27.2467 83.7249 27.7632C83.4409 28.2539 83.131 28.7704 82.7952 29.2352C82.4595 29.7259 82.098 30.1907 81.7364 30.6298C81.349 31.0946 80.9358 31.5078 80.5226 31.921C80.2644 32.1535 80.0319 32.3601 79.7737 32.5667C79.5671 32.7474 79.3863 32.9024 79.1797 33.0832C78.7149 33.4447 78.25 33.7804 77.7335 34.0903C77.2428 34.4002 76.7263 34.7101 76.2098 34.9684C75.6675 35.2267 75.1252 35.4591 74.5828 35.6915C74.0405 35.8981 73.4724 36.0789 72.9042 36.2338C72.336 36.3888 71.7421 36.5179 71.1739 36.6212C70.5799 36.7245 69.986 36.7762 69.4178 36.8278C69.0046 36.8537 68.5914 36.8794 68.1782 36.8794C67.5842 36.8794 66.9902 36.8278 66.4221 36.7761C65.8281 36.7245 65.2341 36.6469 64.666 36.5178C64.072 36.4145 63.5038 36.2596 62.9357 36.0788H62.9098C63.478 36.0272 64.0461 35.9754 64.6143 35.8722C65.2083 35.7689 65.7764 35.6398 66.3446 35.4848C66.9127 35.3299 67.4809 35.1491 68.0232 34.9425C68.5914 34.7359 69.1337 34.4776 69.6502 34.2194C70.1925 33.9611 70.6832 33.6771 71.1997 33.3672C71.6904 33.0314 72.1811 32.6957 72.6459 32.3341C73.1108 31.9726 73.5498 31.5852 73.963 31.172C74.402 30.7846 74.7894 30.3456 75.1768 29.9066C75.5641 29.4417 75.9257 28.9769 76.2614 28.512C76.313 28.4345 76.3648 28.3313 76.4164 28.2538C76.6746 27.8406 76.9329 27.4274 77.1653 27.0142C77.4494 26.4977 77.7076 25.9812 77.9401 25.4388C78.1725 24.8965 78.3791 24.3542 78.5599 23.786C78.7406 23.2437 78.8698 22.6755 78.9989 22.1074C79.1023 21.5134 79.2055 20.9453 79.2572 20.3771C79.3088 19.7831 79.3605 19.1891 79.3605 18.621C79.3605 18.2078 79.3346 17.7946 79.3089 17.3814C79.2573 16.7874 79.1798 16.2193 79.1023 15.6511C78.9989 15.0571 78.8699 14.489 78.7149 13.9208C78.5341 13.3785 78.3534 12.8103 78.1468 12.268C77.9401 11.7257 77.6819 11.1834 77.4236 10.6668C77.1396 10.1503 76.8555 9.63384 76.5456 9.14317C76.2099 8.6525 75.8741 8.18764 75.5126 7.72278C75.1252 7.28376 74.7378 6.84473 74.3246 6.4057C74.118 6.19911 73.8856 5.96668 73.6532 5.76008C72.491 4.85619 71.2773 4.00396 70.0635 3.22921C69.8827 3.12587 69.7278 3.04843 69.547 2.97095C68.6947 2.42863 67.8941 2.1444 67.0936 1.88616Z" fill="#E0234E"></path>
</svg>
